<svg width="580" height="400" xmlns="http://www.w3.org/2000/svg">
 <!-- Created with Method Draw - http://github.com/duopixel/Method-Draw/ -->
 <g>
  <title>background</title>
  <rect fill="#fff" id="canvas_background" height="402" width="582" y="-1" x="-1"/>
  <g display="none" overflow="visible" y="0" x="0" height="100%" width="100%" id="canvasGrid">
   <rect fill="url(#gridpattern)" stroke-width="0" y="0" x="0" height="100%" width="100%"/>
  </g>
 </g>
 <g>
  <title>Layer 1</title>
  <path id="svg_1" d="m290.430912,90.946386c-17.935951,0 -33.331126,7.878831 -40.866797,19.253038c-3.009707,-1.423285 -6.329408,-2.285082 -9.872313,-2.285082c-10.713859,0 -19.629316,7.300658 -22.384895,17.211056c-4.703424,-1.574743 -10.172204,-2.528177 -16.013812,-2.528177c-17.524838,0 -31.740637,8.121989 -31.740637,18.134812c0,9.038272 11.658842,16.468565 26.804484,17.843092c-0.67881,0.975577 -1.205346,1.94167 -1.205346,2.965748c0,9.58674 31.00713,17.405516 69.220999,17.405516c38.213863,0 69.221036,-7.818782 69.220999,-17.405516c0,-0.64503 -0.472642,-1.220666 -0.74616,-1.847517c1.673774,0.352582 3.331047,0.729285 5.165749,0.729285c10.222788,0.000027 18.539286,-5.88376 18.539286,-13.127076c0,-7.243321 -8.316498,-13.127071 -18.539286,-13.127071c-1.252778,0 -2.318031,0.366544 -3.50123,0.534809c1.034592,-2.896242 1.72191,-5.851475 1.72191,-8.994477c0,-19.173464 -20.489311,-34.762429 -45.802937,-34.762429l-0.000013,-0.000011z" stroke-width="1.5" stroke="#000" fill="#529D94"/>
  <text stroke="#000" transform="matrix(0.758846640586853,0,0,1.6666666269302368,45.21625488996506,-77.33332872390747) " xml:space="preserve" text-anchor="start" font-family="Helvetica, Arial, sans-serif" font-size="24" id="svg_2" y="138" x="186.182211" stroke-width="0" fill="#000000">Marlon Rodríguez</text>
 </g>
</svg>